<?xml version="1.0" encoding="UTF-8" standalone="no"?>
<svg
   viewBox="-0.2 -1 377.28683 290.50055"
   version="1.1"
   id="svg23"
   sodipodi:docname="pluginIcon.svg"
   inkscape:version="1.1.2 (0a00cf5339, 2022-02-04)"
   width="377.28683"
   height="290.50055"
   xmlns:inkscape="http://www.inkscape.org/namespaces/inkscape"
   xmlns:sodipodi="http://sodipodi.sourceforge.net/DTD/sodipodi-0.dtd"
   xmlns="http://www.w3.org/2000/svg"
   xmlns:svg="http://www.w3.org/2000/svg">
  <defs
     id="defs27">
    <filter
       id="filter0_f_20_32"
       x="5"
       y="7"
       width="10"
       height="7.0001202"
       filterUnits="userSpaceOnUse"
       color-interpolation-filters="sRGB">
      <feFlood
         flood-opacity="0"
         result="BackgroundImageFix"
         id="feFlood69" />
      <feBlend
         mode="normal"
         in="SourceGraphic"
         in2="BackgroundImageFix"
         result="shape"
         id="feBlend71" />
      <feGaussianBlur
         stdDeviation="0.75"
         result="effect1_foregroundBlur_20_32"
         id="feGaussianBlur73" />
    </filter>
    <filter
       id="filter1_f_20_32"
       x="15.9998"
       y="7"
       width="10.0005"
       height="7.0002398"
       filterUnits="userSpaceOnUse"
       color-interpolation-filters="sRGB">
      <feFlood
         flood-opacity="0"
         result="BackgroundImageFix"
         id="feFlood76" />
      <feBlend
         mode="normal"
         in="SourceGraphic"
         in2="BackgroundImageFix"
         result="shape"
         id="feBlend78" />
      <feGaussianBlur
         stdDeviation="0.75"
         result="effect1_foregroundBlur_20_32"
         id="feGaussianBlur80" />
    </filter>
    <filter
       id="filter2_f_20_32"
       x="6.375"
       y="6.875"
       width="8.75"
       height="5.7500601"
       filterUnits="userSpaceOnUse"
       color-interpolation-filters="sRGB">
      <feFlood
         flood-opacity="0"
         result="BackgroundImageFix"
         id="feFlood83" />
      <feBlend
         mode="normal"
         in="SourceGraphic"
         in2="BackgroundImageFix"
         result="shape"
         id="feBlend85" />
      <feGaussianBlur
         stdDeviation="0.75"
         result="effect1_foregroundBlur_20_32"
         id="feGaussianBlur87" />
    </filter>
    <filter
       id="filter3_f_20_32"
       x="17.375"
       y="6.875"
       width="8.75"
       height="5.7500601"
       filterUnits="userSpaceOnUse"
       color-interpolation-filters="sRGB">
      <feFlood
         flood-opacity="0"
         result="BackgroundImageFix"
         id="feFlood90" />
      <feBlend
         mode="normal"
         in="SourceGraphic"
         in2="BackgroundImageFix"
         result="shape"
         id="feBlend92" />
      <feGaussianBlur
         stdDeviation="0.75"
         result="effect1_foregroundBlur_20_32"
         id="feGaussianBlur94" />
    </filter>
    <radialGradient
       id="paint0_radial_20_32"
       cx="0"
       cy="0"
       r="1"
       gradientUnits="userSpaceOnUse"
       gradientTransform="matrix(-25.500016,27.49994,-27.49994,-25.500016,25.5,9)">
      <stop
         stop-color="#FFF478"
         id="stop97" />
      <stop
         offset="0.474827"
         stop-color="#FFB02E"
         id="stop99" />
      <stop
         offset="1"
         stop-color="#F70A8D"
         id="stop101" />
    </radialGradient>
    <radialGradient
       id="paint1_radial_20_32"
       cx="0"
       cy="0"
       r="1"
       gradientUnits="userSpaceOnUse"
       gradientTransform="matrix(-26.000077,28.999953,-28.999953,-26.000077,25.5,9)">
      <stop
         stop-color="#FFF478"
         id="stop104" />
      <stop
         offset="0.474827"
         stop-color="#FFB02E"
         id="stop106" />
      <stop
         offset="1"
         stop-color="#F70A8D"
         id="stop108" />
    </radialGradient>
    <radialGradient
       id="paint2_radial_20_32"
       cx="0"
       cy="0"
       r="1"
       gradientUnits="userSpaceOnUse"
       gradientTransform="matrix(-3.5000268,17.500027,-22.414206,-4.4828686,16,12.5)">
      <stop
         offset="0.787821"
         stop-color="#F59639"
         stop-opacity="0"
         id="stop111" />
      <stop
         offset="0.972509"
         stop-color="#FF7DCE"
         id="stop113" />
    </radialGradient>
    <radialGradient
       id="paint3_radial_20_32"
       cx="0"
       cy="0"
       r="1"
       gradientUnits="userSpaceOnUse"
       gradientTransform="matrix(-29.000005,29.000005,-29.000005,-29.000005,18,14)">
      <stop
         offset="0.314853"
         stop-opacity="0"
         id="stop116" />
      <stop
         offset="1"
         id="stop118" />
    </radialGradient>
    <radialGradient
       id="paint4_radial_20_32"
       cx="0"
       cy="0"
       r="1"
       gradientUnits="userSpaceOnUse"
       gradientTransform="matrix(5.9999848,27.499967,-27.499967,5.9999848,16,17)">
      <stop
         offset="0.507903"
         stop-color="#7D6133"
         stop-opacity="0"
         id="stop121" />
      <stop
         offset="1"
         stop-color="#715B32"
         id="stop123" />
    </radialGradient>
    <radialGradient
       id="paint5_radial_20_32"
       cx="0"
       cy="0"
       r="1"
       gradientUnits="userSpaceOnUse"
       gradientTransform="matrix(7.4999892,10.999975,-7.9733561,5.4363838,16.5,16.5)">
      <stop
         stop-color="#FFB849"
         id="stop126" />
      <stop
         offset="1"
         stop-color="#FFB847"
         stop-opacity="0"
         id="stop128" />
    </radialGradient>
    <radialGradient
       id="paint6_radial_20_32"
       cx="0"
       cy="0"
       r="1"
       gradientUnits="userSpaceOnUse"
       gradientTransform="matrix(11.499983,1.9999976,-1.9999976,11.499983,20.5,18)">
      <stop
         stop-color="#FFA64B"
         id="stop131" />
      <stop
         offset="0.900412"
         stop-color="#FFAE46"
         stop-opacity="0"
         id="stop133" />
    </radialGradient>
    <radialGradient
       id="paint7_radial_20_32"
       cx="0"
       cy="0"
       r="1"
       gradientUnits="userSpaceOnUse"
       gradientTransform="matrix(42.500002,40.999937,-40.999937,42.500002,17.5,15)">
      <stop
         offset="0.185425"
         stop-opacity="0"
         id="stop136" />
      <stop
         offset="1"
         stop-opacity="0.4"
         id="stop138" />
    </radialGradient>
    <radialGradient
       id="paint8_radial_20_32"
       cx="0"
       cy="0"
       r="1"
       gradientUnits="userSpaceOnUse"
       gradientTransform="matrix(0,-11,22,0,16,27)">
      <stop
         stop-color="#F70A8D"
         id="stop141" />
      <stop
         offset="1"
         stop-color="#89029C"
         id="stop143" />
    </radialGradient>
    <linearGradient
       id="paint9_linear_20_32"
       x1="16"
       y1="16"
       x2="16"
       y2="17.5"
       gradientUnits="userSpaceOnUse">
      <stop
         stop-color="#ECCDFF"
         id="stop146" />
      <stop
         offset="1"
         stop-color="white"
         id="stop148" />
    </linearGradient>
  </defs>
  <sodipodi:namedview
     id="namedview25"
     pagecolor="#ffffff"
     bordercolor="#666666"
     borderopacity="1.0"
     inkscape:pageshadow="2"
     inkscape:pageopacity="0.0"
     inkscape:pagecheckerboard="0"
     showgrid="false"
     inkscape:zoom="2.1304204"
     inkscape:cx="-19.714419"
     inkscape:cy="145.51119"
     inkscape:window-width="1920"
     inkscape:window-height="1052"
     inkscape:window-x="1920"
     inkscape:window-y="0"
     inkscape:window-maximized="1"
     inkscape:current-layer="svg23"
     fit-margin-top="0"
     fit-margin-left="0"
     fit-margin-right="0"
     fit-margin-bottom="0" />
  <g
     id="g2099"
     transform="matrix(1.5710682,0,0,1.5710682,-106.66626,-117.63471)">
    <path
       id="cat"
       fill="#000000"
       d="m 307.73581,163.91614 0.17767,-0.88138 c -19.77379,-3.95387 -40.06601,-3.99385 -52.34198,-3.48367 2.0166,-7.26622 2.62322,-15.62702 2.62322,-24.95044 0,-13.37184 -5.02371,-24.06905 -13.17956,-32.20904 1.42519,-4.600476 3.32884,-14.817337 -1.90111,-27.896646 0,0 -9.22697,-2.929709 -30.09726,11.038602 -8.17552,-2.043246 -16.87644,-3.052178 -25.59006,-3.052178 -9.58739,0 -19.27504,1.220871 -28.31037,3.699417 -21.53657,-14.692331 -31.044,-11.682668 -31.044,-11.682668 -6.20588,15.519147 -2.36877,27.010183 -1.20311,29.863743 -7.29413,7.87221 -11.74739,17.92155 -11.74739,30.24194 0,9.30121 1.05906,17.64552 3.64548,24.89777 -12.38067,-0.45053 -31.93237,-0.2773 -51.000545,3.53571 l 0.175135,0.88138 c 19.183029,-3.83648 38.85783,-3.96973 51.16299,-3.50397 0.56983,1.50134 1.20501,2.95763 1.91697,4.36505 -12.16873,0.39216 -32.947012,1.94299 -52.859772,7.56065 l 0.24557,0.86298 c 20.070128,-5.6589 41.028622,-7.17103 53.079332,-7.5397 7.27065,13.55268 21.6051,22.30564 47.10632,25.0545 -3.61946,2.43223 -7.3119,6.56694 -8.80816,13.56284 -4.93235,2.35925 -20.54604,8.11778 -29.91388,-7.99467 0,0 -5.2439,-9.58739 -15.28119,-10.33806 0,0 -9.73651,-0.14912 -0.67198,6.06755 0,0 6.5149,3.06994 11.01004,14.60666 0,0 5.86386,19.67734 34.16091,13.36422 v 20.32585 c 0,0 -0.59838,7.18944 -7.18943,9.58485 0,0 -3.89423,2.6962 0.30141,4.19183 0,0 18.2699,1.49817 18.2699,-13.47654 v -22.16413 c 0,0 -0.72465,-8.78976 3.59345,-11.84511 v 36.40466 c 0,0 -0.29824,8.6857 -4.79147,11.98091 0,0 -2.99697,5.38985 3.59344,3.89422 0,0 12.57929,-1.79704 13.17894,-16.4735 l 0.28491,-36.84188 h 3.02362 l 0.28745,36.84188 c 0.59838,14.67646 13.1783,16.4735 13.1783,16.4735 6.58852,1.49563 3.59345,-3.89422 3.59345,-3.89422 -4.4926,-3.29521 -4.79148,-11.98091 -4.79148,-11.98091 v -36.09056 c 4.31557,3.36056 3.59345,11.53037 3.59345,11.53037 v 22.16414 c 0,14.97534 18.27055,13.47654 18.27055,13.47654 4.19182,-1.49563 0.30077,-4.19183 0.30077,-4.19183 -6.59041,-2.39542 -7.18943,-9.58485 -7.18943,-9.58485 v -29.05343 c 0,-11.32922 -4.77053,-17.32888 -9.43573,-20.49591 27.1961,-2.69683 40.24686,-11.47834 46.26047,-25.1224 11.91238,0.32743 33.34996,1.77864 53.85602,7.56318 l 0.24366,-0.86298 c -20.38867,-5.75091 -41.68474,-7.23893 -53.71768,-7.5892 0.56982,-1.37824 1.06731,-2.81168 1.50896,-4.28637 12.21505,-0.50764 32.60309,-0.5013 52.45176,3.46463 z"
       style="stroke-width:0.634548" />
    <g
       style="fill:none"
       id="g225"
       transform="matrix(3.5072081,0,0,3.5072081,130.80988,81.613565)">
      <path
         d="m 15.9989,29.9978 c 9.3344,0 13.9989,-6.2675 13.9989,-13.9989 C 29.9978,8.26751 25.3333,2 15.9989,2 6.66443,2 2,8.26751 2,15.9989 2,23.7303 6.66443,29.9978 15.9989,29.9978 Z"
         fill="url(#paint0_radial_20_32)"
         id="path29"
         style="fill:url(#paint0_radial_20_32)" />
      <path
         d="m 15.9989,29.9978 c 9.3344,0 13.9989,-6.2675 13.9989,-13.9989 C 29.9978,8.26751 25.3333,2 15.9989,2 6.66443,2 2,8.26751 2,15.9989 2,23.7303 6.66443,29.9978 15.9989,29.9978 Z"
         fill="url(#paint1_radial_20_32)"
         id="path31"
         style="fill:url(#paint1_radial_20_32)" />
      <path
         d="m 15.9989,29.9978 c 9.3344,0 13.9989,-6.2675 13.9989,-13.9989 C 29.9978,8.26751 25.3333,2 15.9989,2 6.66443,2 2,8.26751 2,15.9989 2,23.7303 6.66443,29.9978 15.9989,29.9978 Z"
         fill="url(#paint2_radial_20_32)"
         id="path33"
         style="fill:url(#paint2_radial_20_32)" />
      <path
         d="m 15.9989,29.9978 c 9.3344,0 13.9989,-6.2675 13.9989,-13.9989 C 29.9978,8.26751 25.3333,2 15.9989,2 6.66443,2 2,8.26751 2,15.9989 2,23.7303 6.66443,29.9978 15.9989,29.9978 Z"
         fill="url(#paint3_radial_20_32)"
         fill-opacity="0.6"
         id="path35"
         style="fill:url(#paint3_radial_20_32)" />
      <path
         d="m 15.9989,29.9978 c 9.3344,0 13.9989,-6.2675 13.9989,-13.9989 C 29.9978,8.26751 25.3333,2 15.9989,2 6.66443,2 2,8.26751 2,15.9989 2,23.7303 6.66443,29.9978 15.9989,29.9978 Z"
         fill="url(#paint4_radial_20_32)"
         id="path37"
         style="fill:url(#paint4_radial_20_32)" />
      <path
         d="m 15.9989,29.9978 c 9.3344,0 13.9989,-6.2675 13.9989,-13.9989 C 29.9978,8.26751 25.3333,2 15.9989,2 6.66443,2 2,8.26751 2,15.9989 2,23.7303 6.66443,29.9978 15.9989,29.9978 Z"
         fill="url(#paint5_radial_20_32)"
         id="path39"
         style="fill:url(#paint5_radial_20_32)" />
      <path
         d="m 15.9989,29.9978 c 9.3344,0 13.9989,-6.2675 13.9989,-13.9989 C 29.9978,8.26751 25.3333,2 15.9989,2 6.66443,2 2,8.26751 2,15.9989 2,23.7303 6.66443,29.9978 15.9989,29.9978 Z"
         fill="url(#paint6_radial_20_32)"
         id="path41"
         style="fill:url(#paint6_radial_20_32)" />
      <path
         d="m 15.9989,29.9978 c 9.3344,0 13.9989,-6.2675 13.9989,-13.9989 C 29.9978,8.26751 25.3333,2 15.9989,2 6.66443,2 2,8.26751 2,15.9989 2,23.7303 6.66443,29.9978 15.9989,29.9978 Z"
         fill="url(#paint7_radial_20_32)"
         id="path43"
         style="fill:url(#paint7_radial_20_32)" />
      <g
         opacity="0.5"
         filter="url(#filter0_f_20_32)"
         id="g47">
        <path
           d="m 7.5,11.5 c 0,0 0.25,-2 2.5,-2 2.25,0 2.5,2 2.5,2"
           stroke="#9a4609"
           stroke-width="2"
           stroke-linecap="round"
           id="path45" />
      </g>
      <g
         opacity="0.5"
         filter="url(#filter1_f_20_32)"
         id="g51">
        <path
           d="m 18.5,11.5 c 0,0 0.5,-2 2.5,-2 2,0 2.5,2 2.5,2"
           stroke="#9a4609"
           stroke-width="2"
           stroke-linecap="round"
           id="path49" />
      </g>
      <path
         d="m 8,11 c 0,0 0.25,-2 2.5,-2 2.25,0 2.5,2 2.5,2"
         stroke="#43273b"
         stroke-width="2"
         stroke-linecap="round"
         stroke-linejoin="round"
         id="path53" />
      <g
         opacity="0.26"
         filter="url(#filter2_f_20_32)"
         id="g57">
        <path
           d="m 8.25,10.75 c 0,0 0.25,-2 2.5,-2 2.25,0 2.5,2 2.5,2"
           stroke="#ffffff"
           stroke-width="0.75"
           stroke-linecap="round"
           stroke-linejoin="round"
           id="path55" />
      </g>
      <path
         d="m 19,11 c 0,0 0.5,-2 2.5,-2 2,0 2.5,2 2.5,2"
         stroke="#43273b"
         stroke-width="2"
         stroke-linecap="round"
         stroke-linejoin="round"
         id="path59" />
      <g
         opacity="0.26"
         filter="url(#filter3_f_20_32)"
         id="g63">
        <path
           d="m 19.25,10.75 c 0,0 0.25,-2 2.5,-2 2.25,0 2.5,2 2.5,2"
           stroke="#ffffff"
           stroke-width="0.75"
           stroke-linecap="round"
           stroke-linejoin="round"
           id="path61" />
      </g>
      <path
         d="M 16,25 C 7,25 7,16 7,16 h 18 c 0,0 0,9 -9,9 z"
         fill="url(#paint8_radial_20_32)"
         id="path65"
         style="fill:url(#paint8_radial_20_32)" />
      <path
         d="M 8,16.5 V 16 h 16 v 0.5 c 0,0.5523 -0.4477,1 -1,1 H 9 c -0.55228,0 -1,-0.4477 -1,-1 z"
         fill="url(#paint9_linear_20_32)"
         id="path67"
         style="fill:url(#paint9_linear_20_32)" />
    </g>
  </g>
</svg>
